<svg width="45" height="40" viewBox="0 0 45 40" fill="none" xmlns="http://www.w3.org/2000/svg">
<path d="M23.1242 36.25H18.7492V26.4672L31.932 13.2852C33.1445 12.0727 32.2859 10 30.5711 10H1.92734C0.212499 10 -0.646095 12.0727 0.566405 13.2852L13.7492 26.4672V36.25H9.37422C7.64844 36.25 6.24922 37.6492 6.24922 39.375C6.24922 39.7203 6.5289 40 6.87422 40H25.6242C25.9695 40 26.2492 39.7203 26.2492 39.375C26.2492 37.6492 24.85 36.25 23.1242 36.25ZM33.7492 0C28.8578 0 24.7375 3.14062 23.1883 7.5H27.293C28.5937 5.26953 30.9859 3.75 33.7492 3.75C37.8844 3.75 41.2492 7.11406 41.2492 11.25C41.2492 15.3859 37.8844 18.75 33.7492 18.75C32.6523 18.75 31.6172 18.5 30.6773 18.075L27.9227 20.8297C29.6266 21.8687 31.6078 22.5 33.7492 22.5C39.9625 22.5 44.9992 17.4633 44.9992 11.25C44.9992 5.03672 39.9625 0 33.7492 0Z" fill="white"/>
</svg>
